<svg width="583" height="219" viewBox="0 0 583 219" fill="none" xmlns="http://www.w3.org/2000/svg">
<path d="M218.606 109.292C218.606 48.9628 169.699 0.0560303 109.37 0.0560303C49.0402 0.0560303 0.133484 48.9628 0.133484 109.292C0.133484 169.622 49.0402 218.529 109.37 218.529C169.699 218.529 218.606 169.622 218.606 109.292Z" fill="#004846"/>
<path d="M141.881 63.7772C140.174 63.7752 138.482 64.1108 136.904 64.7646C135.326 65.4183 133.893 66.3775 132.687 67.5868L67.6645 132.605C65.2255 135.044 63.8552 138.352 63.8552 141.802C63.8552 145.251 65.2255 148.559 67.6645 150.998C70.1035 153.437 73.4115 154.807 76.8608 154.807C80.3101 154.807 83.6181 153.437 86.0571 150.998L151.075 85.975C152.894 84.1564 154.132 81.8395 154.633 79.3173C155.135 76.7951 154.878 74.1807 153.894 71.8049C152.909 69.429 151.243 67.3982 149.105 65.9693C146.967 64.5404 144.453 63.7776 141.881 63.7772Z" fill="white"/>
<path d="M68.4745 86.7122C69.754 87.7385 71.3703 88.2508 73.0074 88.1489C74.6445 88.0471 76.1847 87.3385 77.3272 86.1615L99.6296 63.8591V63.7772H77.4046C73.9326 63.7238 70.5764 65.0244 68.047 67.4034C65.5177 69.7824 64.014 73.0527 63.8547 76.5214C63.8141 78.4573 64.208 80.3777 65.0075 82.1413C65.807 83.9049 66.9917 85.4669 68.4745 86.7122Z" fill="white"/>
<path d="M141.827 132.009L119.028 154.807H141.376C144.833 154.855 148.173 153.559 150.693 151.191C153.212 148.824 154.713 145.571 154.881 142.118C154.933 139.997 154.464 137.896 153.516 135.999C152.568 134.102 151.169 132.466 149.442 131.235C148.284 130.447 146.886 130.093 145.493 130.235C144.101 130.376 142.802 131.004 141.827 132.009Z" fill="white"/>
<path d="M270.566 149.744V140.24L313.715 80.0511H270.566V68.909H329.772V78.3033L286.515 138.602H329.772V149.744H270.566ZM368.672 90.7563C372.314 90.7563 375.336 91.3389 377.739 92.5041C380.215 93.6693 382.181 95.0165 383.638 96.5458C385.094 98.0751 386.15 99.386 386.806 100.478H387.461V91.8487H399.914V149.744H387.461V141.114H386.806C386.15 142.207 385.094 143.517 383.638 145.047C382.181 146.576 380.215 147.923 377.739 149.088C375.336 150.254 372.314 150.836 368.672 150.836C364.303 150.836 360.48 149.999 357.203 148.324C353.998 146.576 351.304 144.282 349.119 141.442C346.934 138.529 345.296 135.288 344.203 131.72C343.184 128.152 342.674 124.51 342.674 120.796C342.674 117.082 343.184 113.441 344.203 109.873C345.296 106.304 346.934 103.1 349.119 100.26C351.304 97.3469 353.998 95.0529 357.203 93.378C360.48 91.6302 364.303 90.7563 368.672 90.7563ZM371.403 101.134C367.835 101.134 364.849 102.117 362.446 104.083C360.043 105.977 358.222 108.416 356.984 111.402C355.819 114.388 355.236 117.519 355.236 120.796C355.236 124.073 355.819 127.205 356.984 130.191C358.222 133.176 360.043 135.652 362.446 137.619C364.849 139.512 367.835 140.459 371.403 140.459C374.972 140.459 377.921 139.512 380.251 137.619C382.655 135.652 384.439 133.176 385.604 130.191C386.842 127.205 387.461 124.073 387.461 120.796C387.461 117.519 386.842 114.388 385.604 111.402C384.439 108.416 382.655 105.977 380.251 104.083C377.921 102.117 374.972 101.134 371.403 101.134ZM415.582 149.744V66.7243H428.035V114.898L449.773 91.8487H465.067L439.833 118.284L465.831 149.744H450.429L428.035 122.435V149.744H415.582ZM476.789 149.744V91.8487H489.242V99.4952H489.679C490.771 97.2376 492.483 95.235 494.813 93.4872C497.216 91.6666 500.675 90.7563 505.19 90.7563C506.574 90.7563 507.739 90.8291 508.686 90.9748C509.705 91.1204 510.215 91.1932 510.215 91.1932V103.209C510.215 103.209 509.669 103.136 508.577 102.991C507.484 102.845 506.246 102.772 504.863 102.772C499.765 102.772 495.869 104.229 493.174 107.142C490.553 109.982 489.242 114.606 489.242 121.015V149.744H476.789ZM542.234 90.7563C545.876 90.7563 548.898 91.3389 551.301 92.5041C553.777 93.6693 555.743 95.0165 557.2 96.5458C558.656 98.0751 559.712 99.386 560.368 100.478H561.023V91.8487H573.476V149.744H561.023V141.114H560.368C559.712 142.207 558.656 143.517 557.2 145.047C555.743 146.576 553.777 147.923 551.301 149.088C548.898 150.254 545.876 150.836 542.234 150.836C537.865 150.836 534.042 149.999 530.764 148.324C527.56 146.576 524.866 144.282 522.681 141.442C520.496 138.529 518.858 135.288 517.765 131.72C516.746 128.152 516.236 124.51 516.236 120.796C516.236 117.082 516.746 113.441 517.765 109.873C518.858 106.304 520.496 103.1 522.681 100.26C524.866 97.3469 527.56 95.0529 530.764 93.378C534.042 91.6302 537.865 90.7563 542.234 90.7563ZM544.965 101.134C541.397 101.134 538.411 102.117 536.008 104.083C533.605 105.977 531.784 108.416 530.546 111.402C529.381 114.388 528.798 117.519 528.798 120.796C528.798 124.073 529.381 127.205 530.546 130.191C531.784 133.176 533.605 135.652 536.008 137.619C538.411 139.512 541.397 140.459 544.965 140.459C548.534 140.459 551.483 139.512 553.813 137.619C556.217 135.652 558.001 133.176 559.166 130.191C560.404 127.205 561.023 124.073 561.023 120.796C561.023 117.519 560.404 114.388 559.166 111.402C558.001 108.416 556.217 105.977 553.813 104.083C551.483 102.117 548.534 101.134 544.965 101.134Z" fill="#004846"/>
</svg>
