<svg xmlns="http://www.w3.org/2000/svg" fill="none" viewBox="0 0 120 100">
  <rect width="119" height="99" x=".5" y=".5" fill="#FAFAFA" rx="3.5"/>
  <rect width="68" height="20" x="6" y="5" fill="#D4D4D8" rx="2"/>
  <rect width="68" height="3" x="6" y="29" fill="#E4E4E7" rx="1.5"/>
  <rect width="68" height="3" x="6" y="35" fill="#E4E4E7" rx="1.5"/>
  <rect width="35" height="3" x="6" y="41" fill="#E4E4E7" rx="1.5"/>
  <path fill="#71717A" d="M74 47H6v2h68v-2Z" mask="url(#path-5-inside-2_9630_55723)"/>
  <rect width="68" height="20" x="6" y="52" fill="#D4D4D8" rx="2"/>
  <rect width="68" height="3" x="6" y="76" fill="#E4E4E7" rx="1.5"/>
  <rect width="68" height="3" x="6" y="82" fill="#E4E4E7" rx="1.5"/>
  <rect width="35" height="3" x="6" y="88" fill="#E4E4E7" rx="1.5"/>
  <path fill="#71717A" d="M74 94H6v2h68v-2Z" mask="url(#path-11-inside-3_9630_55723)"/>
  <path fill="#71717A" d="M80 0v100h2V0h-2Z" mask="url(#path-2-inside-1_9630_55723)"/>
  <rect width="11" height="11" x="87" y="5" fill="#D4D4D8" rx="2"/>
  <rect width="14" height="2" x="100" y="7.5" fill="#D4D4D8" rx="1"/>
  <rect width="10" height="2" x="100" y="11.5" fill="#E4E4E7" rx="1"/>
  <rect width="11" height="11" x="87" y="19" fill="#D4D4D8" rx="2"/>
  <rect width="14" height="2" x="100" y="21.5" fill="#D4D4D8" rx="1"/>
  <rect width="10" height="2" x="100" y="25.5" fill="#E4E4E7" rx="1"/>
  <rect width="11" height="11" x="87" y="33" fill="#D4D4D8" rx="2"/>
  <rect width="14" height="2" x="100" y="35.5" fill="#D4D4D8" rx="1"/>
  <rect width="10" height="2" x="100" y="39.5" fill="#E4E4E7" rx="1"/>
  <rect width="11" height="11" x="87" y="47" fill="#D4D4D8" rx="2"/>
  <rect width="14" height="2" x="100" y="49.5" fill="#D4D4D8" rx="1"/>
  <rect width="10" height="2" x="100" y="53.5" fill="#E4E4E7" rx="1"/>
  <rect width="18" height="2" x="87" y="67" fill="#D4D4D8" rx="1"/>
  <rect width="27" height="2" x="87" y="72" fill="#E4E4E7" rx="1"/>
  <rect width="27" height="2" x="87" y="76" fill="#E4E4E7" rx="1"/>
  <rect width="119" height="99" x=".5" y=".5" stroke="#71717A" rx="3.5"/>
</svg>
