<svg xmlns="http://www.w3.org/2000/svg" fill="none" viewBox="0 0 120 100">
  <rect width="120" height="100" fill="#E4E4E7" rx="4"/>
  <rect width="119" height="39" x=".5" y="30.5" fill="#FAFAFA" rx="3.5"/>
  <path fill="#71717A" d="M16.333 48.333A1.65 1.65 0 0 1 18 46.667a1.65 1.65 0 0 1 1.667 1.666A1.65 1.65 0 0 1 18 50a1.65 1.65 0 0 1-1.667-1.667Zm3 2.334h-2.666A1.65 1.65 0 0 0 15 52.333V53c0 .2.133.333.333.333h5.334c.2 0 .333-.133.333-.333v-.667a1.65 1.65 0 0 0-1.667-1.666Z"/>
  <rect width="24" height="3" x="25" y="48.5" fill="#71717A" rx="1.5"/>
  <g clip-path="url(#a)">
    <path fill="#71717A" d="M75 46.667a3.333 3.333 0 1 0 0 6.665 3.333 3.333 0 0 0 0-6.665Zm1.497 4.083a.333.333 0 0 1-.447.147l-1.2-.6a.334.334 0 0 1-.183-.297v-1.8a.333.333 0 0 1 .666 0v1.593l1.017.51a.334.334 0 0 1 .147.447Z"/>
  </g>
  <rect width="24" height="3" x="82" y="48.5" fill="#71717A" rx="1.5"/>
  <rect width="119" height="39" x=".5" y="30.5" stroke="#71717A" rx="3.5"/>
  <defs>
    <clipPath id="a">
      <path fill="#fff" d="M71 46h8v8h-8z"/>
    </clipPath>
  </defs>
</svg>
