<svg xmlns="http://www.w3.org/2000/svg" fill="none" viewBox="0 0 120 100">
  <rect width="120" height="99.998" fill="#E4E4E7" rx="4"/>
  <rect width="119" height="74.998" x=".5" y="12.5" fill="#FAFAFA" rx="3.5"/>
  <g stroke="#71717A" stroke-linecap="round" stroke-linejoin="round" stroke-width="1.5" clip-path="url(#a)">
    <path d="M66.572 40.358a1.527 1.527 0 0 0 .297 1.664l.054.055a1.83 1.83 0 0 1 .529 1.293 1.85 1.85 0 0 1-.529 1.293 1.802 1.802 0 0 1-1.275.536 1.78 1.78 0 0 1-1.275-.536l-.054-.055a1.467 1.467 0 0 0-1.64-.301 1.493 1.493 0 0 0-.654.553 1.53 1.53 0 0 0-.248.826v.156c0 .484-.19.95-.528 1.292a1.79 1.79 0 0 1-1.274.535 1.79 1.79 0 0 1-1.275-.535 1.84 1.84 0 0 1-.527-1.292v-.083a1.521 1.521 0 0 0-.278-.842 1.49 1.49 0 0 0-.696-.538 1.468 1.468 0 0 0-1.64.302l-.054.055a1.802 1.802 0 0 1-1.275.536 1.78 1.78 0 0 1-1.275-.536 1.83 1.83 0 0 1-.529-1.293 1.85 1.85 0 0 1 .529-1.293l.054-.055a1.528 1.528 0 0 0 .297-1.663 1.508 1.508 0 0 0-.546-.664 1.472 1.472 0 0 0-.815-.25h-.153a1.79 1.79 0 0 1-1.274-.536 1.84 1.84 0 0 1-.528-1.292c0-.485.19-.95.528-1.292a1.79 1.79 0 0 1 1.274-.536h.081c.299-.007.588-.105.83-.28.243-.177.428-.423.531-.707a1.528 1.528 0 0 0-.297-1.663l-.054-.055a1.828 1.828 0 0 1-.529-1.293 1.85 1.85 0 0 1 .529-1.293 1.802 1.802 0 0 1 1.275-.536 1.78 1.78 0 0 1 1.275.536l.054.055a1.467 1.467 0 0 0 1.64.302h.072c.267-.116.494-.309.654-.554a1.52 1.52 0 0 0 .247-.826v-.156c0-.484.19-.95.528-1.292a1.79 1.79 0 0 1 1.275-.535c.478 0 .936.192 1.274.535.338.343.528.808.528 1.292v.083a1.521 1.521 0 0 0 .901 1.38 1.467 1.467 0 0 0 1.64-.302l.055-.055a1.802 1.802 0 0 1 1.275-.536 1.78 1.78 0 0 1 1.275.536 1.83 1.83 0 0 1 .529 1.293 1.85 1.85 0 0 1-.529 1.293l-.054.055a1.527 1.527 0 0 0-.297 1.663v.073c.114.27.304.501.545.664.242.162.525.25.816.25h.153c.478 0 .936.193 1.274.536.338.342.528.807.528 1.292s-.19.95-.528 1.292a1.79 1.79 0 0 1-1.274.536h-.081c-.29 0-.574.088-.816.25a1.503 1.503 0 0 0-.545.663v0Z"/>
    <path d="M59.903 42.812c2.83 0 5.123-2.326 5.123-5.195s-2.294-5.194-5.123-5.194-5.122 2.325-5.122 5.194c0 2.869 2.293 5.195 5.122 5.195Zm-5.123-5.195h10.246"/>
    <path d="M59.903 32.423a8.008 8.008 0 0 1 2.05 5.194 8.008 8.008 0 0 1-2.05 5.195 8.008 8.008 0 0 1-2.049-5.195 8.008 8.008 0 0 1 2.049-5.194v0Z"/>
  </g>
  <path fill="#71717A" d="m74.952 41.404-.483-.128.483.128ZM69.141 24.59a.5.5 0 0 0-.42.57l.672 4.449a.5.5 0 0 0 .989-.15l-.598-3.955 3.956-.597a.5.5 0 1 0-.15-.99l-4.45.673ZM58.417 53.462c2.122.177 5.69-.265 9.067-2.01 3.393-1.752 6.61-4.831 7.952-9.92l-.967-.255c-1.258 4.77-4.256 7.64-7.444 9.287-3.204 1.656-6.583 2.064-8.524 1.901l-.084.997Zm17.019-11.93c2.222-8.431-2.602-14.4-5.924-16.85l-.593.805c3.132 2.31 7.63 7.9 5.55 15.79l.967.254Zm-24.415 8.635a.5.5 0 0 0 .426-.565l-.626-4.455a.5.5 0 1 0-.99.14l.556 3.96-3.961.56a.5.5 0 0 0 .14.99l4.455-.63Zm8.985-28.632c-1.948-.122-5.19.407-8.222 2.212-3.048 1.815-5.885 4.925-6.966 9.948l.977.21c1.017-4.722 3.664-7.61 6.5-9.3 2.855-1.699 5.897-2.181 7.648-2.072l.063-.998Zm-15.188 12.16c-1.79 8.313 2.738 14.047 5.833 16.377l.602-.8c-2.893-2.177-7.14-7.553-5.458-15.368l-.977-.21ZM33.445 74.998V63.795h3.97c3.978 0 5.968 1.82 5.968 5.461 0 1.745-.544 3.138-1.633 4.18-1.083 1.041-2.529 1.562-4.336 1.562h-3.969Zm2.524-9.148v7.101h1.25c1.093 0 1.95-.328 2.57-.984.625-.656.938-1.55.938-2.68 0-1.067-.31-1.906-.93-2.515-.615-.615-1.48-.922-2.594-.922H35.97Zm16.218 5.85H46.97c.083 1.162.815 1.743 2.195 1.743.88 0 1.654-.209 2.32-.625v1.78c-.74.397-1.7.595-2.882.595-1.292 0-2.295-.357-3.008-1.07-.714-.72-1.07-1.72-1.07-3 0-1.329.385-2.38 1.156-3.157.77-.776 1.718-1.164 2.843-1.164 1.167 0 2.068.346 2.704 1.039.64.693.96 1.633.96 2.82v1.04Zm-2.289-1.515c0-1.146-.463-1.719-1.39-1.719-.396 0-.74.164-1.031.492-.287.328-.461.737-.524 1.227h2.945Zm8.977-5.14a2.494 2.494 0 0 0-.914-.188c-.792 0-1.188.43-1.188 1.289v.851h1.829v1.82h-1.829v6.18h-2.46v-6.18h-1.344v-1.82h1.343v-.992c0-.911.297-1.646.891-2.203.594-.557 1.401-.836 2.422-.836.5 0 .917.052 1.25.156v1.922Zm7.578 9.952h-2.336V73.85h-.031c-.536.896-1.33 1.344-2.383 1.344-.776 0-1.388-.22-1.836-.657-.442-.442-.664-1.03-.664-1.765 0-1.552.92-2.448 2.758-2.688l2.172-.289c0-.875-.474-1.312-1.422-1.312-.953 0-1.86.283-2.719.851v-1.86c.344-.176.813-.333 1.406-.468a7.466 7.466 0 0 1 1.633-.203c2.282 0 3.422 1.138 3.422 3.414v4.781Zm-2.32-3.25v-.539l-1.453.188c-.802.104-1.203.466-1.203 1.086 0 .28.096.513.289.695.198.177.463.266.797.266.463 0 .84-.16 1.132-.477.292-.323.438-.73.438-1.219Zm11.875 3.25h-2.461V73.78h-.04c-.609.943-1.424 1.415-2.445 1.415-1.854 0-2.78-1.123-2.78-3.368v-4.828h2.46v4.61c0 1.13.448 1.695 1.344 1.695.443 0 .797-.154 1.062-.461.266-.313.399-.734.399-1.266v-4.578h2.46v8Zm4.555 0h-2.47V63.154h2.47v11.844Zm6.914-.094c-.365.193-.915.29-1.649.29-1.74 0-2.61-.904-2.61-2.711v-3.664h-1.296v-1.82h1.297v-1.727l2.46-.703v2.43h1.798v1.82H85.68v3.234c0 .833.33 1.25.992 1.25.26 0 .529-.075.805-.227v1.829Z"/>
  <rect width="119" height="74.998" x=".5" y="12.5" stroke="#71717A" rx="3.5"/>
  <defs>
    <clipPath id="a">
      <path fill="#fff" d="M49.089 26.65h21.629v21.933h-21.63z"/>
    </clipPath>
  </defs>
</svg>
