<svg xmlns="http://www.w3.org/2000/svg" id="f6d8a742-31ed-4211-a60b-cd3945bc1336" data-name="Layer 1" width="45" height="45" viewBox="0 0 45 45"><path d="M46.3086,39.48l-.0193-.46H43.3275V6.7632A5.6428,5.6428,0,0,0,41.89,2.4591a4.327,4.327,0,0,0-3.3091-.9682H5.6439v.0383a3.17,3.17,0,0,0-.4245-.0383,3.2173,3.2173,0,0,0-2.3637.92C1.3024,3.964,1.3121,7.0986,1.3217,9.1692V10.07H8.4224l.01,31.0681a5.62,5.62,0,0,0,1.0613,4.2657,3.234,3.234,0,0,0,2.5373,1.0641h30.39a3.0173,3.0173,0,0,0,2.2383-.9586C46.01,44.11,46.3954,41.3876,46.3086,39.48ZM2.2865,9.1117c-.01-1.9172-.01-4.7642,1.2542-6.03A2.2927,2.2927,0,0,1,5.2194,2.45c2.6917,0,3.1644,3.1441,3.203,6.6622ZM12.0306,45.51a2.29,2.29,0,0,1-1.8138-.7382,4.9039,4.9039,0,0,1-.83-3.5755V9.591c0-1.9555,0-5.4544-1.7075-7.1415h30.94a3.3649,3.3649,0,0,1,2.6146.7093,4.82,4.82,0,0,1,1.1287,3.6044V39.02h-26.55v.4793c0,.2492,0,.4888-.0193.7285h-2.711v.9586h2.6434C15.4073,44.0909,14.182,45.51,12.0306,45.51Zm31.9337-.6615a2.0734,2.0734,0,0,1-1.5437.6615H14.8863A6.3706,6.3706,0,0,0,16.69,41.1863c.0386-.3068.0579-.6231.0675-.9586a2.0615,2.0615,0,0,0,.01-.2493H45.3535C45.3535,41.4355,45.0544,43.7074,43.9643,44.8481Z" transform="translate(-1.3202 -1.4682)"></path><path d="M33.5113,18.66,29.49,17.8427a.966.966,0,0,1-.6463-.4662L26.8182,13.83a.9985.9985,0,0,0-1.677,0l-2.0261,3.5465a.9643.9643,0,0,1-.6454.4662l-4.0211.8177a.9568.9568,0,0,0-.5186,1.5863l2.769,3.01a.9551.9551,0,0,1,.2468.7541l-.46,4.053a.9451.9451,0,0,0,.3924.8827.9564.9564,0,0,0,.9653.0964l3.7384-1.6859a.9678.9678,0,0,1,.7961,0l3.7376,1.6859a.96.96,0,0,0,.9666-.0964.9459.9459,0,0,0,.391-.8827l-.46-4.053a.9514.9514,0,0,1,.2469-.7541l2.769-3.01a.957.957,0,0,0-.5182-1.5858Zm-2.9631,3.95a1.9114,1.9114,0,0,0-.4937,1.5081l.4607,4.0521-3.7365-1.686a1.9321,1.9321,0,0,0-1.597,0L21.4451,28.17l.46-4.0525a1.91,1.91,0,0,0-.4937-1.5081l-2.769-3.01,4.0207-.8177a1.9285,1.9285,0,0,0,1.2917-.9323L25.98,14.3032l2.0256,3.5461a1.9259,1.9259,0,0,0,1.2908.9323l4.0211.8182Z" transform="translate(-1.3202 -1.4682)"></path><rect x="11.7657" y="4.3284" width="26.5936" height="0.9586"></rect></svg>