<svg xmlns="http://www.w3.org/2000/svg" id="bda09a0e-c6ed-48ff-9ca6-c167fddb5801" data-name="Layer 1" width="46" height="46.0728" viewBox="0 0 46 46.0728"><path d="M45.9688,27.3652a3.6246,3.6246,0,0,0-1.1514-2.707,5.2,5.2,0,0,0-1.2578-.8711,3.7508,3.7508,0,0,0,3.69-3.9907,4.1352,4.1352,0,0,0-3.8311-4.2847H29.4082a82.3159,82.3159,0,0,0,.9277-9.084,6.4458,6.4458,0,0,0-5.2841-6.92l-.4571-.0781-.1118.45c-.9717,3.9155-3.0786,12.2983-4.0967,16a7.2013,7.2013,0,0,1-4.873,5.1369V18.86H1.25V44.9766H15.5132V42.4633l7.8286,2.87L36.16,45.3262a13.0384,13.0384,0,0,0,2.1347.1758A7.2793,7.2793,0,0,0,42.69,44.33a3.17,3.17,0,0,0,1.2276-2.378A3.2966,3.2966,0,0,0,43.03,39.458a5.9978,5.9978,0,0,0-2.085-1.4033,6.026,6.026,0,0,0,2.99-1.2,2.8136,2.8136,0,0,0,1.0079-2.2109c0-1.8116-1.3-2.9561-2.9414-3.6475a6.1057,6.1057,0,0,0,2.8818-1.2354A3.0528,3.0528,0,0,0,45.9688,27.3652ZM2.25,43.9766V19.86H5.04V43.9766Zm12.2632,0H6.04V19.86h8.4736ZM39.0684,30.2207a14.6067,14.6067,0,0,0-2.0557-.1533l-.0684.9951a18.5,18.5,0,0,0,1.95.1494c2.2217.3154,5.0489,1.2266,5.0489,3.4317a1.8272,1.8272,0,0,1-.6631,1.455c-1.18,1.0235-3.585,1.1973-5.4824,1.1006a14.4507,14.4507,0,0,0-1.5352-.1445l-.09.9951c.163.0234.6982.0938,1.4306.1357,1.624.2344,3.6543.8018,4.6846,1.9424A2.3034,2.3034,0,0,1,42.92,41.89a2.18,2.18,0,0,1-.8515,1.6573c-1.4424,1.1445-4.29,1.0371-5.8252.7861H23.52l-7.8608-2.8818-.1455.3976V21.667l.0776.3652A8.2284,8.2284,0,0,0,21.35,16.1445c.9814-3.5678,2.9687-11.4614,3.9858-15.5493a5.4587,5.4587,0,0,1,4.002,5.7866,77.9564,77.9564,0,0,1-1.0166,9.5376l-.1113.5923L43.376,16.51a3.1508,3.1508,0,0,1,2.874,3.2866A2.8,2.8,0,0,1,43.4189,22.79H39.2383c-.336-.0131-.6612-.0112-.9649.0005l.02.9995H39.15c1.56.0577,3.7715.4346,4.9746,1.59a2.624,2.624,0,0,1,.8438,1.9853,2.0644,2.0644,0,0,1-.7422,1.6416C43.085,30.001,40.9062,30.2324,39.0684,30.2207Z" transform="translate(-1.25 0.5708)"></path><path d="M28.2578,7.3916a4.8906,4.8906,0,0,0-2.084-4.6758l-.5312.8477A3.85,3.85,0,0,1,27.2656,7.26Z" transform="translate(-1.25 0.5708)"></path></svg>