<svg xmlns="http://www.w3.org/2000/svg" id="bca0b969-da00-4909-80b0-f45b795ed16e" data-name="Layer 1" width="45" height="45" viewBox="0 0 45 45"><rect x="21.4279" y="3.2923" width="1.0465" height="3.2928"></rect><path d="M21.5,44A22.5,22.5,0,1,1,44,21.5,22.5253,22.5253,0,0,1,21.5,44ZM21.5.0465A21.4535,21.4535,0,1,0,42.9535,21.5,21.4778,21.4778,0,0,0,21.5.0465Z" transform="translate(1 1)"></path><polygon points="29.351 30.075 21.428 24.981 21.428 10.427 22.474 10.427 22.474 24.409 29.918 29.194 29.351 30.075"></polygon><rect x="21.4279" y="38.4143" width="1.0465" height="3.2928"></rect><rect x="3.8416" y="20.8791" width="3.2928" height="1.0465"></rect><rect x="38.4143" y="20.8791" width="3.2928" height="1.0465"></rect></svg>