<svg xmlns="http://www.w3.org/2000/svg" id="f59e0fcf-1dab-4126-99fd-e4f385b10fdc" data-name="Layer 1" width="11.3905" height="11.3905" viewBox="0 0 11.3905 11.3905"><path d="M5.0168.1924a5,5,0,0,0-5,5V6.5829a5,5,0,0,0,5,5H6.4074a5,5,0,0,0,5-5V5.1924a5,5,0,0,0-5-5ZM9.0154,3.3815a.7974.7974,0,1,0-.7973-.7973A.7974.7974,0,0,0,9.0154,3.3815ZM7.7623,5.8877a2.05,2.05,0,1,0-2.05,2.05A2.05,2.05,0,0,0,7.7623,5.8877Zm-2.05-2.9618A2.9616,2.9616,0,1,0,8.6737,5.8875,2.9617,2.9617,0,0,0,5.7122,2.9259Z" transform="translate(-0.0168 -0.1924)" style="fill-rule:evenodd"></path></svg>