<svg xmlns="http://www.w3.org/2000/svg" width="163" height="16" viewBox="0 0 163 16" fill="none"><path d="M26.182 7.43002C26.974 7.58602 27.616 7.95202 28.108 8.52802C28.6 9.10402 28.846 9.78802 28.846 10.58C28.846 11.6 28.498 12.428 27.802 13.064C27.106 13.688 26.098 14 24.778 14H20.368V1.31002H24.724C25.996 1.31002 26.95 1.59802 27.586 2.17402C28.234 2.73802 28.558 3.50002 28.558 4.46002C28.558 5.28802 28.336 5.95402 27.892 6.45802C27.448 6.95002 26.878 7.27402 26.182 7.43002ZM21.646 6.98002H24.562C25.45 6.98002 26.122 6.77602 26.578 6.36802C27.046 5.94802 27.28 5.37802 27.28 4.65802C27.28 3.95002 27.052 3.39202 26.596 2.98402C26.14 2.57602 25.438 2.37202 24.49 2.37202H21.646V6.98002ZM24.562 12.92C25.51 12.92 26.248 12.704 26.776 12.272C27.304 11.828 27.568 11.216 27.568 10.436C27.568 9.66802 27.298 9.06202 26.758 8.61802C26.218 8.16202 25.474 7.93402 24.526 7.93402H21.646V12.92H24.562Z" fill="#141414"></path><path d="M38.3288 10.904H32.5508L31.3988 14H30.0488L34.7288 1.59802H36.1508L40.8308 14H39.4628L38.3288 10.904ZM37.9508 9.89602L35.4488 3.05602L32.9108 9.89602H37.9508Z" fill="#141414"></path><path d="M49.3908 14L45.9168 8.70802H43.8648V14H42.5868V1.31002H46.4748C47.9028 1.31002 48.9648 1.64602 49.6608 2.31802C50.3688 2.99002 50.7228 3.89602 50.7228 5.03602C50.7228 6.09202 50.4228 6.93202 49.8228 7.55602C49.2348 8.18002 48.3768 8.55202 47.2488 8.67202L50.8308 14H49.3908ZM43.8648 7.75402H46.3848C48.4248 7.75402 49.4448 6.87202 49.4448 5.10802C49.4448 3.30802 48.4248 2.40802 46.3848 2.40802H43.8648V7.75402Z" fill="#141414"></path><path d="M62.3388 14H61.0608L54.1128 3.39802V14H52.8348V1.32802H54.1128L61.0608 11.948V1.32802H62.3388V14Z" fill="#141414"></path><path d="M66.3472 2.33602V7.12402H71.2972V8.11402H66.3472V12.956H71.8372V14H65.0692V1.31002H71.8372V2.33602H66.3472Z" fill="#141414"></path><path d="M81.774 10.778C81.774 11.354 81.636 11.9 81.36 12.416C81.096 12.92 80.682 13.334 80.118 13.658C79.554 13.97 78.852 14.126 78.012 14.126C77.196 14.126 76.47 13.976 75.834 13.676C75.198 13.376 74.688 12.968 74.304 12.452C73.932 11.924 73.716 11.336 73.656 10.688H74.988C75.036 11.06 75.174 11.432 75.402 11.804C75.63 12.176 75.96 12.488 76.392 12.74C76.824 12.98 77.346 13.1 77.958 13.1C78.762 13.1 79.374 12.884 79.794 12.452C80.226 12.02 80.442 11.474 80.442 10.814C80.442 10.25 80.298 9.79402 80.01 9.44602C79.734 9.08602 79.386 8.81002 78.966 8.61802C78.558 8.42602 77.994 8.21602 77.274 7.98802C76.482 7.73602 75.84 7.49602 75.348 7.26802C74.868 7.02802 74.46 6.68002 74.124 6.22402C73.788 5.76802 73.62 5.16202 73.62 4.40602C73.62 3.44602 73.956 2.66602 74.628 2.06602C75.3 1.46602 76.224 1.16602 77.4 1.16602C78.6 1.16602 79.548 1.46002 80.244 2.04802C80.952 2.63602 81.372 3.36802 81.504 4.24402H80.154C80.046 3.70402 79.758 3.22402 79.29 2.80402C78.834 2.38402 78.204 2.17402 77.4 2.17402C76.656 2.17402 76.062 2.36602 75.618 2.75002C75.174 3.13402 74.952 3.66802 74.952 4.35202C74.952 4.89202 75.09 5.33002 75.366 5.66602C75.642 6.00202 75.978 6.26002 76.374 6.44002C76.782 6.62002 77.334 6.82402 78.03 7.05202C78.834 7.30402 79.482 7.55002 79.974 7.79002C80.478 8.03002 80.904 8.39002 81.252 8.87002C81.6 9.35002 81.774 9.98602 81.774 10.778Z" fill="#141414"></path><path d="M90.0249 8.70802V14H88.7469V1.31002H92.5449C93.9729 1.31002 95.0349 1.64002 95.7309 2.30002C96.4389 2.96002 96.7929 3.86602 96.7929 5.01802C96.7929 6.19402 96.4269 7.10602 95.6949 7.75402C94.9749 8.39002 93.9249 8.70802 92.5449 8.70802H90.0249ZM92.4369 7.62802C93.5289 7.62802 94.3149 7.40602 94.7949 6.96202C95.2749 6.50602 95.5149 5.85802 95.5149 5.01802C95.5149 4.15402 95.2749 3.50002 94.7949 3.05602C94.3149 2.60002 93.5289 2.37202 92.4369 2.37202H90.0249V7.62802H92.4369Z" fill="#141414"></path><path d="M106.11 10.904H100.332L99.18 14H97.83L102.51 1.59802H103.932L108.612 14H107.244L106.11 10.904ZM105.732 9.89602L103.23 3.05602L100.692 9.89602H105.732Z" fill="#141414"></path><path d="M111.646 1.31002V14H110.368V1.31002H111.646Z" fill="#141414"></path><path d="M123.88 14H122.602L115.654 3.39802V14H114.376V1.32802H115.654L122.602 11.948V1.32802H123.88V14Z" fill="#141414"></path><path d="M134.044 1.31002V2.33602H130.426V14H129.166V2.33602H125.566V1.31002H134.044Z" fill="#141414"></path><path d="M137.011 2.33602V7.12402H141.961V8.11402H137.011V12.956H142.501V14H135.733V1.31002H142.501V2.33602H137.011Z" fill="#141414"></path><path d="M151.502 14L148.028 8.70802H145.976V14H144.698V1.31002H148.586C150.014 1.31002 151.076 1.64602 151.772 2.31802C152.48 2.99002 152.834 3.89602 152.834 5.03602C152.834 6.09202 152.534 6.93202 151.934 7.55602C151.346 8.18002 150.488 8.55202 149.36 8.67202L152.942 14H151.502ZM145.976 7.75402H148.496C150.536 7.75402 151.556 6.87202 151.556 5.10802C151.556 3.30802 150.536 2.40802 148.496 2.40802H145.976V7.75402Z" fill="#141414"></path><path d="M162.686 10.778C162.686 11.354 162.548 11.9 162.272 12.416C162.008 12.92 161.594 13.334 161.03 13.658C160.466 13.97 159.764 14.126 158.924 14.126C158.108 14.126 157.382 13.976 156.746 13.676C156.11 13.376 155.6 12.968 155.216 12.452C154.844 11.924 154.628 11.336 154.568 10.688H155.9C155.948 11.06 156.086 11.432 156.314 11.804C156.542 12.176 156.872 12.488 157.304 12.74C157.736 12.98 158.258 13.1 158.87 13.1C159.674 13.1 160.286 12.884 160.706 12.452C161.138 12.02 161.354 11.474 161.354 10.814C161.354 10.25 161.21 9.79402 160.922 9.44602C160.646 9.08602 160.298 8.81002 159.878 8.61802C159.47 8.42602 158.906 8.21602 158.186 7.98802C157.394 7.73602 156.752 7.49602 156.26 7.26802C155.78 7.02802 155.372 6.68002 155.036 6.22402C154.7 5.76802 154.532 5.16202 154.532 4.40602C154.532 3.44602 154.868 2.66602 155.54 2.06602C156.212 1.46602 157.136 1.16602 158.312 1.16602C159.512 1.16602 160.46 1.46002 161.156 2.04802C161.864 2.63602 162.284 3.36802 162.416 4.24402H161.066C160.958 3.70402 160.67 3.22402 160.202 2.80402C159.746 2.38402 159.116 2.17402 158.312 2.17402C157.568 2.17402 156.974 2.36602 156.53 2.75002C156.086 3.13402 155.864 3.66802 155.864 4.35202C155.864 4.89202 156.002 5.33002 156.278 5.66602C156.554 6.00202 156.89 6.26002 157.286 6.44002C157.694 6.62002 158.246 6.82402 158.942 7.05202C159.746 7.30402 160.394 7.55002 160.886 7.79002C161.39 8.03002 161.816 8.39002 162.164 8.87002C162.512 9.35002 162.686 9.98602 162.686 10.778Z" fill="#141414"></path><path d="M6.17984 9.23247C6.17984 8.95947 6.17984 8.29433 6.17984 7.81781C6.17984 7.22217 6.77549 6.70098 7.29668 6.62652C7.81787 6.55206 10.945 6.92434 11.8385 5.73305C12.732 4.54176 12.6575 1.9358 12.5086 1.63798C12.3895 1.39972 11.764 1.43943 11.4662 1.48907" stroke="black" stroke-width="0.5"></path><rect x="4.76517" y="8.93457" width="2.97823" height="6.84993" rx="1.48912" fill="#141414"></rect><rect x="11.764" width="3.42497" height="11.0195" rx="1.71248" transform="rotate(90 11.764 0)" fill="#141414"></rect><rect width="0.744558" height="2.68041" rx="0.372279" transform="matrix(4.37114e-08 -1 -1 -4.37114e-08 2.68042 1.93579)" fill="#141414"></rect></svg>