<svg width="407" height="150" viewBox="0 0 407 150" fill="none" xmlns="http://www.w3.org/2000/svg">
<path d="M81.3867 23.9648V105.352H100.107V122.314H81.3867V150H61.6113V122.314H4.57031V105.176C9.72656 99.375 15 93.1055 20.3906 86.3672C25.8398 79.5703 31.0547 72.6562 36.0352 65.625C41.0742 58.5352 45.7324 51.4453 50.0098 44.3555C54.2871 37.2656 57.8906 30.4688 60.8203 23.9648H81.3867ZM61.6113 105.352V52.4414C55.2246 63.9258 48.8965 73.9453 42.627 82.5C36.416 91.0547 30.5859 98.6719 25.1367 105.352H61.6113ZM383.379 23.9648V105.352H402.1V122.314H383.379V150H363.604V122.314H306.562V105.176C311.719 99.375 316.992 93.1055 322.383 86.3672C327.832 79.5703 333.047 72.6562 338.027 65.625C343.066 58.5352 347.725 51.4453 352.002 44.3555C356.279 37.2656 359.883 30.4688 362.812 23.9648H383.379ZM363.604 105.352V52.4414C357.217 63.9258 350.889 73.9453 344.619 82.5C338.408 91.0547 332.578 98.6719 327.129 105.352H363.604Z" fill="#3F3F46"/>
<rect x="118.78" y="14" width="168.441" height="135" rx="3" fill="#F4F4F5" stroke="#3F3F46" stroke-width="2"/>
<circle cx="124.906" cy="22.6829" r="2" fill="#3F3F46"/>
<circle cx="130.906" cy="22.6829" r="2" fill="#3F3F46"/>
<circle cx="136.906" cy="22.6829" r="2" fill="#3F3F46"/>
<rect width="128.151" height="2.56075" rx="1.28037" transform="matrix(1 0 0 -1 151.099 24.5227)" fill="#3F3F46"/>
<path d="M185.7 55.4117L170.322 69.884" stroke="#3F3F46" stroke-width="3" stroke-linecap="round" stroke-linejoin="round"/>
<path d="M170.322 55.4117L185.7 69.884" stroke="#3F3F46" stroke-width="3" stroke-linecap="round" stroke-linejoin="round"/>
<path d="M236.319 55.4117L222.223 69.884" stroke="#3F3F46" stroke-width="3" stroke-linecap="round" stroke-linejoin="round"/>
<path d="M222.223 55.4117L236.319 69.884" stroke="#3F3F46" stroke-width="3" stroke-linecap="round" stroke-linejoin="round"/>
<line x1="119.061" y1="33.7676" x2="286.939" y2="33.7676" stroke="#3F3F46" stroke-width="2"/>
<path d="M178.01 111.588V111.588C197.125 114.137 216.563 114.131 235.678 111.588V111.588" stroke="#3F3F46" stroke-width="3" stroke-linecap="round"/>
<path d="M211.758 114.977L227.942 113.952L228.584 123.534C228.883 128.002 225.503 131.853 221.034 132.136C216.565 132.419 212.7 129.027 212.4 124.559L211.758 114.977Z" fill="#3F3F46" stroke="#3F3F46" stroke-width="4"/>
<path d="M220.301 117.99L220.761 126.128" stroke="#D4D4D8" stroke-width="3" stroke-linecap="round"/>
</svg>
