<svg xmlns="http://www.w3.org/2000/svg" width="52" height="23" viewBox="0 0 52 23" fill="none"><path d="M3.598 13.558H8.658V16H0.518V0.644H3.598V13.558ZM16.0277 16.198C14.8543 16.198 13.7983 15.9413 12.8597 15.428C11.921 14.9 11.1803 14.1593 10.6377 13.206C10.1097 12.2527 9.84566 11.1527 9.84566 9.906C9.84566 8.65933 10.117 7.55933 10.6597 6.606C11.217 5.65267 11.9723 4.91933 12.9257 4.406C13.879 3.878 14.9423 3.614 16.1157 3.614C17.289 3.614 18.3523 3.878 19.3057 4.406C20.259 4.91933 21.007 5.65267 21.5497 6.606C22.107 7.55933 22.3857 8.65933 22.3857 9.906C22.3857 11.1527 22.0997 12.2527 21.5277 13.206C20.9703 14.1593 20.2077 14.9 19.2397 15.428C18.2863 15.9413 17.2157 16.198 16.0277 16.198ZM16.0277 13.514C16.585 13.514 17.1057 13.382 17.5897 13.118C18.0883 12.8393 18.4843 12.4287 18.7777 11.886C19.071 11.3433 19.2177 10.6833 19.2177 9.906C19.2177 8.74733 18.9097 7.86 18.2937 7.244C17.6923 6.61333 16.9517 6.298 16.0717 6.298C15.1917 6.298 14.451 6.61333 13.8497 7.244C13.263 7.86 12.9697 8.74733 12.9697 9.906C12.9697 11.0647 13.2557 11.9593 13.8277 12.59C14.4143 13.206 15.1477 13.514 16.0277 13.514ZM29.419 3.614C30.3283 3.614 31.1276 3.79733 31.817 4.164C32.5063 4.516 33.049 4.978 33.445 5.55V3.812H36.547V16.088C36.547 17.2173 36.3196 18.222 35.865 19.102C35.4103 19.9967 34.7283 20.7007 33.819 21.214C32.9096 21.742 31.8096 22.006 30.519 22.006C28.7883 22.006 27.3656 21.6027 26.251 20.796C25.151 19.9893 24.5276 18.8893 24.381 17.496H27.439C27.6003 18.0533 27.945 18.4933 28.473 18.816C29.0156 19.1533 29.6683 19.322 30.431 19.322C31.3256 19.322 32.0516 19.0507 32.609 18.508C33.1663 17.98 33.445 17.1733 33.445 16.088V14.196C33.049 14.768 32.499 15.2447 31.795 15.626C31.1056 16.0073 30.3136 16.198 29.419 16.198C28.3923 16.198 27.4536 15.934 26.603 15.406C25.7523 14.878 25.0776 14.1373 24.579 13.184C24.095 12.216 23.853 11.1087 23.853 9.862C23.853 8.63 24.095 7.53733 24.579 6.584C25.0776 5.63067 25.745 4.89733 26.581 4.384C27.4316 3.87067 28.3776 3.614 29.419 3.614ZM33.445 9.906C33.445 9.158 33.2983 8.52 33.005 7.992C32.7116 7.44933 32.3156 7.03867 31.817 6.76C31.3183 6.46667 30.783 6.32 30.211 6.32C29.639 6.32 29.111 6.45933 28.627 6.738C28.143 7.01667 27.747 7.42733 27.439 7.97C27.1456 8.498 26.999 9.12867 26.999 9.862C26.999 10.5953 27.1456 11.2407 27.439 11.798C27.747 12.3407 28.143 12.7587 28.627 13.052C29.1256 13.3453 29.6536 13.492 30.211 13.492C30.783 13.492 31.3183 13.3527 31.817 13.074C32.3156 12.7807 32.7116 12.37 33.005 11.842C33.2983 11.2993 33.445 10.654 33.445 9.906ZM44.9671 16.198C43.7938 16.198 42.7378 15.9413 41.7991 15.428C40.8604 14.9 40.1198 14.1593 39.5771 13.206C39.0491 12.2527 38.7851 11.1527 38.7851 9.906C38.7851 8.65933 39.0564 7.55933 39.5991 6.606C40.1564 5.65267 40.9118 4.91933 41.8651 4.406C42.8184 3.878 43.8818 3.614 45.0551 3.614C46.2284 3.614 47.2918 3.878 48.2451 4.406C49.1984 4.91933 49.9464 5.65267 50.4891 6.606C51.0464 7.55933 51.3251 8.65933 51.3251 9.906C51.3251 11.1527 51.0391 12.2527 50.4671 13.206C49.9098 14.1593 49.1471 14.9 48.1791 15.428C47.2258 15.9413 46.1551 16.198 44.9671 16.198ZM44.9671 13.514C45.5244 13.514 46.0451 13.382 46.5291 13.118C47.0278 12.8393 47.4238 12.4287 47.7171 11.886C48.0104 11.3433 48.1571 10.6833 48.1571 9.906C48.1571 8.74733 47.8491 7.86 47.2331 7.244C46.6318 6.61333 45.8911 6.298 45.0111 6.298C44.1311 6.298 43.3904 6.61333 42.7891 7.244C42.2024 7.86 41.9091 8.74733 41.9091 9.906C41.9091 11.0647 42.1951 11.9593 42.7671 12.59C43.3538 13.206 44.0871 13.514 44.9671 13.514Z" fill="#1C2448"></path></svg>